# xmcd
#
# Track frame offsets:
#	182
#	26090
#	45722
#	61842
#	78647
#	92617
#	113560
#	135757
#	152742
#	166205
#	180997
#	197230
#	212307
#	229605
#
# Disc length: 3238 seconds
#
# Revision: 1
# Processed by: cddbd v1.5.1PL0 Copyright (c) Steve Scherf et al.
# Submitted via: audiograbber 1.80
#
DISCID=a30ca40e
DTITLE=Engelbert - Vol3
DYEAR=1900
DGENRE=
TTITLE0=Medley
TTITLE1=What I Did For Love
TTITLE2=Goodbye My Friend
TTITLE3=You Are Here
TTITLE4=Look At Me
TTITLE5=Summer of My Life
TTITLE6=From Me to You
TTITLE7=Put a Light In Your Windo
TTITLE8=Without You
TTITLE9=Spanish Eyes
TTITLE10=Can't Take My Eyes Off You
TTITLE11=Love Story
TTITLE12=California Blue
TTITLE13=By the Time I Get to Phoenix
EXTD=
EXTT0=
EXTT1=
EXTT2=
EXTT3=
EXTT4=
EXTT5=
EXTT6=
EXTT7=
EXTT8=
EXTT9=
EXTT10=
EXTT11=
EXTT12=
EXTT13=
PLAYORDER=
